<svg width="148" height="72" viewBox="0 0 148 72" fill="none" xmlns="http://www.w3.org/2000/svg">
<g filter="url(#filter0_ddii_723_1574)">
<g clip-path="url(#clip0_723_1574)">
<rect x="4" y="8" width="140" height="55.0135" rx="27.5068" fill="#117AF5" fill-opacity="0.61" shape-rendering="crispEdges"/>
<circle cx="10.8134" cy="31.8134" r="54.122" fill="white" fill-opacity="0.1"/>
<circle cx="10.8138" cy="31.8138" r="76.4076" fill="white" fill-opacity="0.1"/>
<circle cx="10.8156" cy="31.8156" r="100.816" fill="white" fill-opacity="0.1"/>
<path fill-rule="evenodd" clip-rule="evenodd" d="M174.073 -1.92561C174.658 10.896 166.562 22.1034 154.977 26.0081C156.616 29.3618 157.611 33.0988 157.792 37.0653C158.5 52.5806 146.496 65.7323 130.981 66.4403C123.962 66.7606 117.427 64.4795 112.309 60.4487C110.979 70.4377 102.658 78.3507 92.2369 78.8262C85.2554 79.1448 78.9081 76.0531 74.8072 71.0226C72.0239 72.5753 68.8471 73.5223 65.4468 73.6775C62.8118 73.7977 60.2671 73.4322 57.8994 72.6599C56.0759 82.0589 48.0167 89.3461 38.0296 89.8019C30.8671 90.1287 24.372 86.8661 20.2854 81.603C17.3284 83.4157 13.8846 84.5276 10.1748 84.6969C1.35313 85.0995 -6.45603 80.057 -9.99995 72.5385C-13.2501 74.9107 -17.21 76.3865 -21.5306 76.5837C-33.2403 77.118 -43.1661 68.0586 -43.7004 56.3489C-44.2348 44.6392 -35.1754 34.7135 -23.4657 34.1791C-14.6441 33.7766 -6.8349 38.819 -3.29098 46.3376C-0.0407902 43.9653 3.91905 42.4895 8.23972 42.2924C15.4023 41.9655 21.8973 45.2282 25.9839 50.4912C28.9409 48.6785 32.3847 47.5666 36.0945 47.3973C38.7296 47.2771 41.2743 47.6427 43.642 48.4149C45.4655 39.0159 53.5247 31.7287 63.5118 31.273C70.4933 30.9544 76.8406 34.0461 80.9415 39.0766C83.7248 37.5239 86.9016 36.5768 90.3019 36.4217C94.3881 36.2352 98.2572 37.217 101.586 39.0721C101.256 26.4839 109.285 15.5436 120.701 11.6956C119.062 8.3418 118.068 4.60483 117.887 0.63834C117.179 -14.877 129.183 -28.0286 144.698 -28.7366C160.213 -29.4447 173.365 -17.4409 174.073 -1.92561Z" fill="#F3FDFF" fill-opacity="0.6"/>
<path fill-rule="evenodd" clip-rule="evenodd" d="M189.998 13.9816C189.998 26.8161 181.4 37.6425 169.65 41.0154C171.133 44.4392 171.955 48.216 171.955 52.1849C171.955 67.7164 159.365 80.3071 143.833 80.3071C136.809 80.3071 130.387 77.7323 125.459 73.475C123.676 83.3939 115.002 90.9203 104.57 90.9203C97.5797 90.9203 91.3789 87.5412 87.5118 82.3275C84.6602 83.7521 81.443 84.5537 78.0385 84.5537C75.4003 84.5537 72.8744 84.0723 70.544 83.1926C68.2932 92.4978 59.9107 99.4091 49.9139 99.4091C42.7449 99.4091 36.4062 95.8548 32.5635 90.4123C29.5268 92.0886 26.0356 93.0425 22.3216 93.0425C13.4905 93.0425 5.91913 87.649 2.72182 79.9763C-0.633421 82.1985 -4.65693 83.4926 -8.9827 83.4926C-20.7046 83.4926 -30.207 73.9901 -30.207 62.2683C-30.207 50.5464 -20.7046 41.0439 -8.9827 41.0439C-0.151602 41.0439 7.41978 46.4374 10.6171 54.1101C13.9723 51.888 17.9958 50.5938 22.3216 50.5938C29.4906 50.5938 35.8294 54.1481 39.672 59.5907C42.7087 57.9144 46.1999 56.9605 49.9139 56.9605C52.5522 56.9605 55.078 57.4418 57.4084 58.3216C59.6592 49.0164 68.0417 42.105 78.0385 42.105C85.0286 42.105 91.2293 45.4841 95.0965 50.6979C97.9481 49.2732 101.165 48.4716 104.57 48.4716C108.658 48.4716 112.477 49.6277 115.716 51.6307C115.96 39.0396 124.478 28.4754 136.059 25.1511C134.575 21.7273 133.753 17.9505 133.753 13.9816C133.753 -1.54987 146.344 -14.1406 161.875 -14.1406C177.407 -14.1406 189.998 -1.54987 189.998 13.9816Z" fill="#F3FDFF"/>
</g>
</g>
<defs>
<filter id="filter0_ddii_723_1574" x="0" y="0" width="148" height="71.0117" filterUnits="userSpaceOnUse" color-interpolation-filters="sRGB">
<feFlood flood-opacity="0" result="BackgroundImageFix"/>
<feColorMatrix in="SourceAlpha" type="matrix" values="0 0 0 0 0 0 0 0 0 0 0 0 0 0 0 0 0 0 127 0" result="hardAlpha"/>
<feOffset dy="4"/>
<feGaussianBlur stdDeviation="2"/>
<feComposite in2="hardAlpha" operator="out"/>
<feColorMatrix type="matrix" values="0 0 0 0 1 0 0 0 0 1 0 0 0 0 1 0 0 0 0.94 0"/>
<feBlend mode="normal" in2="BackgroundImageFix" result="effect1_dropShadow_723_1574"/>
<feColorMatrix in="SourceAlpha" type="matrix" values="0 0 0 0 0 0 0 0 0 0 0 0 0 0 0 0 0 0 127 0" result="hardAlpha"/>
<feOffset dy="-4"/>
<feGaussianBlur stdDeviation="2"/>
<feComposite in2="hardAlpha" operator="out"/>
<feColorMatrix type="matrix" values="0 0 0 0 0 0 0 0 0 0 0 0 0 0 0 0 0 0 0.25 0"/>
<feBlend mode="normal" in2="effect1_dropShadow_723_1574" result="effect2_dropShadow_723_1574"/>
<feBlend mode="normal" in="SourceGraphic" in2="effect2_dropShadow_723_1574" result="shape"/>
<feColorMatrix in="SourceAlpha" type="matrix" values="0 0 0 0 0 0 0 0 0 0 0 0 0 0 0 0 0 0 127 0" result="hardAlpha"/>
<feOffset dy="7"/>
<feGaussianBlur stdDeviation="4.5"/>
<feComposite in2="hardAlpha" operator="arithmetic" k2="-1" k3="1"/>
<feColorMatrix type="matrix" values="0 0 0 0 0 0 0 0 0 0 0 0 0 0 0 0 0 0 0.25 0"/>
<feBlend mode="normal" in2="shape" result="effect3_innerShadow_723_1574"/>
<feColorMatrix in="SourceAlpha" type="matrix" values="0 0 0 0 0 0 0 0 0 0 0 0 0 0 0 0 0 0 127 0" result="hardAlpha"/>
<feOffset dy="-5"/>
<feGaussianBlur stdDeviation="7"/>
<feComposite in2="hardAlpha" operator="arithmetic" k2="-1" k3="1"/>
<feColorMatrix type="matrix" values="0 0 0 0 0 0 0 0 0 0 0 0 0 0 0 0 0 0 0.25 0"/>
<feBlend mode="normal" in2="effect3_innerShadow_723_1574" result="effect4_innerShadow_723_1574"/>
</filter>
<clipPath id="clip0_723_1574">
<rect x="4" y="8" width="140" height="55.0135" rx="27.5068" fill="white"/>
</clipPath>
</defs>
</svg>
