<svg width="148" height="72" viewBox="0 0 148 72" fill="none" xmlns="http://www.w3.org/2000/svg">
<g filter="url(#filter0_ddii_723_1618)">
<g clip-path="url(#clip0_723_1618)">
<rect x="4" y="8" width="140" height="55.0135" rx="27.5067" fill="#252D37"/>
<circle cx="128" cy="38.0004" r="42.4105" fill="white" fill-opacity="0.1"/>
<circle cx="127.999" cy="37.9987" r="59.8737" fill="white" fill-opacity="0.1"/>
<circle cx="128" cy="38" r="79" fill="white" fill-opacity="0.1"/>
<path d="M20.4321 30.9253C19.8799 31.5025 19.2086 31.81 18.418 31.8476C19.2086 31.8853 19.8799 32.1927 20.4321 32.7763C20.9843 33.3535 21.2604 34.0437 21.2604 34.8406C21.2604 34.3135 21.3859 33.8304 21.6368 33.3786C21.8941 32.9268 22.2392 32.5629 22.6721 32.2931C23.1114 32.017 23.5882 31.8727 24.109 31.8476C23.3122 31.8037 22.6408 31.5025 22.0886 30.9253C21.5364 30.348 21.2604 29.6641 21.2604 28.8672C21.2604 29.6641 20.9843 30.348 20.4321 30.9253Z" fill="white"/>
<path d="M36.077 16.6408C34.9808 17.7869 33.6478 18.3973 32.0781 18.4721C33.6478 18.5468 34.9808 19.1573 36.077 20.3158C37.1733 21.4619 37.7215 22.8323 37.7215 24.4144C37.7215 23.3679 37.9706 22.4087 38.4689 21.5118C38.9797 20.6148 39.6648 19.8923 40.5244 19.3566C41.3965 18.8084 42.3433 18.5219 43.3772 18.4721C41.7951 18.3849 40.4621 17.7869 39.3659 16.6408C38.2696 15.4947 37.7215 14.1368 37.7215 12.5547C37.7215 14.1368 37.1733 15.4947 36.077 16.6408Z" fill="white"/>
<path d="M70.4277 27.8183C69.6915 28.588 68.7963 28.9979 67.7422 29.0481C68.7963 29.0983 69.6915 29.5083 70.4277 30.2863C71.1639 31.056 71.532 31.9763 71.532 33.0388C71.532 32.336 71.6994 31.6918 72.034 31.0895C72.377 30.4871 72.8372 30.0019 73.4144 29.6421C74.0001 29.274 74.6359 29.0816 75.3303 29.0481C74.2678 28.9896 73.3726 28.588 72.6364 27.8183C71.9002 27.0486 71.532 26.1367 71.532 25.0742C71.532 26.1367 71.1639 27.0486 70.4277 27.8183Z" fill="white"/>
<path d="M53.2339 23.104C53.0498 23.2964 52.826 23.3989 52.5625 23.4114C52.826 23.424 53.0498 23.5265 53.2339 23.721C53.4179 23.9134 53.51 24.1435 53.51 24.4091C53.51 24.2334 53.5518 24.0724 53.6355 23.9218C53.7212 23.7712 53.8362 23.6499 53.9806 23.5599C54.127 23.4679 54.2859 23.4198 54.4595 23.4114C54.1939 23.3968 53.9701 23.2964 53.786 23.104C53.602 22.9116 53.51 22.6836 53.51 22.418C53.51 22.6836 53.4179 22.9116 53.2339 23.104Z" fill="white"/>
<path d="M93.4526 37.522C93.2686 37.7144 93.0448 37.8169 92.7812 37.8294C93.0448 37.842 93.2686 37.9444 93.4526 38.139C93.6367 38.3314 93.7287 38.5615 93.7287 38.8271C93.7287 38.6514 93.7705 38.4903 93.8542 38.3397C93.94 38.1892 94.055 38.0678 94.1993 37.9779C94.3457 37.8859 94.5047 37.8378 94.6783 37.8294C94.4126 37.8148 94.1889 37.7144 94.0048 37.522C93.8207 37.3295 93.7287 37.1016 93.7287 36.8359C93.7287 37.1016 93.6367 37.3295 93.4526 37.522Z" fill="white"/>
<path d="M50.3569 38.8286C50.0256 39.1749 49.6228 39.3594 49.1484 39.382C49.6228 39.4046 50.0256 39.5891 50.3569 39.9392C50.6882 40.2855 50.8539 40.6997 50.8539 41.1778C50.8539 40.8616 50.9292 40.5717 51.0798 40.3006C51.2341 40.0295 51.4412 39.8112 51.7009 39.6493C51.9645 39.4837 52.2506 39.3971 52.5631 39.382C52.0849 39.3557 51.6821 39.1749 51.3508 38.8286C51.0195 38.4822 50.8539 38.0719 50.8539 37.5938C50.8539 38.0719 50.6882 38.4822 50.3569 38.8286Z" fill="white"/>
<path d="M76.5366 45.6606C76.2053 46.007 75.8025 46.1915 75.3281 46.214C75.8025 46.2366 76.2053 46.4211 76.5366 46.7712C76.8679 47.1176 77.0336 47.5317 77.0336 48.0098C77.0336 47.6936 77.1089 47.4037 77.2594 47.1326C77.4138 46.8616 77.6209 46.6432 77.8806 46.4813C78.1442 46.3157 78.4303 46.2291 78.7428 46.214C78.2646 46.1877 77.8618 46.007 77.5305 45.6606C77.1992 45.3143 77.0336 44.9039 77.0336 44.4258C77.0336 44.9039 76.8679 45.3143 76.5366 45.6606Z" fill="white"/>
<path d="M99.6811 23.6528C99.3498 23.9992 98.947 24.1836 98.4727 24.2062C98.947 24.2288 99.3498 24.4133 99.6811 24.7634C100.012 25.1098 100.178 25.5239 100.178 26.002C100.178 25.6858 100.253 25.3959 100.404 25.1248C100.558 24.8538 100.765 24.6354 101.025 24.4735C101.289 24.3079 101.575 24.2213 101.887 24.2062C101.409 24.1799 101.006 23.9992 100.675 23.6528C100.344 23.3065 100.178 22.8961 100.178 22.418C100.178 22.8961 100.012 23.3065 99.6811 23.6528Z" fill="white"/>
<path d="M30.209 43.2792C29.4727 44.0489 28.5776 44.4589 27.5234 44.5091C28.5776 44.5593 29.4727 44.9692 30.209 45.7472C30.9452 46.5169 31.3133 47.4372 31.3133 48.4997C31.3133 47.797 31.4806 47.1528 31.8153 46.5504C32.1583 45.948 32.6184 45.4628 33.1957 45.1031C33.7813 44.7349 34.4171 44.5425 35.1115 44.5091C34.049 44.4505 33.1538 44.0489 32.4176 43.2792C31.6814 42.5096 31.3133 41.5977 31.3133 40.5352C31.3133 41.5977 30.9452 42.5096 30.209 43.2792Z" fill="white"/>
<path d="M61.543 53.0703C60.954 53.686 60.2378 54.014 59.3945 54.0541C60.2378 54.0943 60.954 54.4222 61.543 55.0447C62.1319 55.6604 62.4264 56.3966 62.4264 57.2466C62.4264 56.6844 62.5603 56.1691 62.828 55.6872C63.1024 55.2053 63.4705 54.8171 63.9323 54.5293C64.4008 54.2348 64.9095 54.0809 65.465 54.0541C64.615 54.0073 63.8989 53.686 63.3099 53.0703C62.7209 52.4545 62.4264 51.725 62.4264 50.875C62.4264 51.725 62.1319 52.4545 61.543 53.0703Z" fill="white"/>
<path d="M62.0557 36.8492C61.9504 36.9592 61.8225 37.0178 61.6719 37.0249C61.8225 37.0321 61.9504 37.0907 62.0557 37.2019C62.1609 37.3119 62.2135 37.4434 62.2135 37.5952C62.2135 37.4948 62.2374 37.4028 62.2852 37.3167C62.3342 37.2306 62.4 37.1612 62.4825 37.1098C62.5662 37.0572 62.657 37.0297 62.7563 37.0249C62.6044 37.0166 62.4765 36.9592 62.3713 36.8492C62.2661 36.7392 62.2135 36.6089 62.2135 36.457C62.2135 36.6089 62.1609 36.7392 62.0557 36.8492Z" fill="white"/>
</g>
</g>
<defs>
<filter id="filter0_ddii_723_1618" x="0" y="0" width="148" height="71.0117" filterUnits="userSpaceOnUse" color-interpolation-filters="sRGB">
<feFlood flood-opacity="0" result="BackgroundImageFix"/>
<feColorMatrix in="SourceAlpha" type="matrix" values="0 0 0 0 0 0 0 0 0 0 0 0 0 0 0 0 0 0 127 0" result="hardAlpha"/>
<feOffset dy="4"/>
<feGaussianBlur stdDeviation="2"/>
<feComposite in2="hardAlpha" operator="out"/>
<feColorMatrix type="matrix" values="0 0 0 0 1 0 0 0 0 1 0 0 0 0 1 0 0 0 0.94 0"/>
<feBlend mode="normal" in2="BackgroundImageFix" result="effect1_dropShadow_723_1618"/>
<feColorMatrix in="SourceAlpha" type="matrix" values="0 0 0 0 0 0 0 0 0 0 0 0 0 0 0 0 0 0 127 0" result="hardAlpha"/>
<feOffset dy="-4"/>
<feGaussianBlur stdDeviation="2"/>
<feComposite in2="hardAlpha" operator="out"/>
<feColorMatrix type="matrix" values="0 0 0 0 0 0 0 0 0 0 0 0 0 0 0 0 0 0 0.25 0"/>
<feBlend mode="normal" in2="effect1_dropShadow_723_1618" result="effect2_dropShadow_723_1618"/>
<feBlend mode="normal" in="SourceGraphic" in2="effect2_dropShadow_723_1618" result="shape"/>
<feColorMatrix in="SourceAlpha" type="matrix" values="0 0 0 0 0 0 0 0 0 0 0 0 0 0 0 0 0 0 127 0" result="hardAlpha"/>
<feOffset dy="7"/>
<feGaussianBlur stdDeviation="4.5"/>
<feComposite in2="hardAlpha" operator="arithmetic" k2="-1" k3="1"/>
<feColorMatrix type="matrix" values="0 0 0 0 0 0 0 0 0 0 0 0 0 0 0 0 0 0 0.25 0"/>
<feBlend mode="normal" in2="shape" result="effect3_innerShadow_723_1618"/>
<feColorMatrix in="SourceAlpha" type="matrix" values="0 0 0 0 0 0 0 0 0 0 0 0 0 0 0 0 0 0 127 0" result="hardAlpha"/>
<feOffset dy="-5"/>
<feGaussianBlur stdDeviation="7"/>
<feComposite in2="hardAlpha" operator="arithmetic" k2="-1" k3="1"/>
<feColorMatrix type="matrix" values="0 0 0 0 0 0 0 0 0 0 0 0 0 0 0 0 0 0 0.25 0"/>
<feBlend mode="normal" in2="effect3_innerShadow_723_1618" result="effect4_innerShadow_723_1618"/>
</filter>
<clipPath id="clip0_723_1618">
<rect x="4" y="8" width="140" height="55.0135" rx="27.5067" fill="white"/>
</clipPath>
</defs>
</svg>
