<svg width="72" height="72" viewBox="0 0 72 72" fill="none" xmlns="http://www.w3.org/2000/svg">
<g id="flag_english 1" filter="url(#filter0_dii_19_4839)">
<g clip-path="url(#clip0_19_4839)">
<g id="g11">
<path id="rect1" d="M125.3 8H3.70001V72H125.3V8Z" fill="#B22234"/>
<g id="path1">
<path d="M3.70001 15.3845H125.3H3.70001ZM125.3 25.2307H3.70001H125.3ZM3.70001 35.0768H125.3H3.70001ZM125.3 44.923H3.70001H125.3ZM3.70001 54.7691H125.3H3.70001ZM125.3 64.6153H3.70001H125.3Z" fill="black"/>
<path d="M3.70001 15.3845H125.3M125.3 25.2307H3.70001M3.70001 35.0768H125.3M125.3 44.923H3.70001M3.70001 54.7691H125.3M125.3 64.6153H3.70001" stroke="white" stroke-width="4.92308"/>
</g>
<path id="rect2" d="M38 -2H-11V42.45H38V-2Z" fill="#3C3B6E"/>
<g id="g10">
<g id="s18">
<g id="use7">
<g id="use6">
<path id="s" d="M4.84684 4.02905L6.00552 8.65173L2.97205 5.79476H6.72163L3.68815 8.65173L4.84684 4.02905Z" fill="white"/>
<path id="use2" d="M4.84684 12.9729L6.00552 17.5956L2.97205 14.7386H6.72163L3.68815 17.5956L4.84684 12.9729Z" fill="white"/>
<path id="use3" d="M4.84684 21.9165L6.00552 26.5392L2.97205 23.6822H6.72163L3.68815 26.5392L4.84684 21.9165Z" fill="white"/>
<path id="use4" d="M4.84684 30.8604L6.00552 35.483L2.97205 32.6261H6.72163L3.68815 35.483L4.84684 30.8604Z" fill="white"/>
</g>
</g>
</g>
<g id="use8">
<g id="s9">
<g id="s5">
<g id="s4">
<path id="use2_2" d="M8.90439 8.50098L10.0631 13.1237L7.0296 10.2667H10.7792L7.74571 13.1237L8.90439 8.50098Z" fill="white"/>
<path id="use3_2" d="M8.90439 17.4448L10.0631 22.0675L7.0296 19.2105H10.7792L7.74571 22.0675L8.90439 17.4448Z" fill="white"/>
<path id="use4_2" d="M8.90439 26.3887L10.0631 31.0114L7.0296 28.1544H10.7792L7.74571 31.0114L8.90439 26.3887Z" fill="white"/>
</g>
<path id="use5" d="M8.90439 35.3323L10.0631 39.955L7.0296 37.098H10.7792L7.74571 39.955L8.90439 35.3323Z" fill="white"/>
</g>
<g id="use6_2">
<path id="s_2" d="M12.9619 4.02905L14.1206 8.65173L11.0871 5.79476H14.8367L11.8032 8.65173L12.9619 4.02905Z" fill="white"/>
<path id="use2_3" d="M12.9619 12.9729L14.1206 17.5956L11.0871 14.7386H14.8367L11.8032 17.5956L12.9619 12.9729Z" fill="white"/>
<path id="use3_3" d="M12.9619 21.9165L14.1206 26.5392L11.0871 23.6822H14.8367L11.8032 26.5392L12.9619 21.9165Z" fill="white"/>
<path id="use4_3" d="M12.9619 30.8604L14.1206 35.483L11.0871 32.6261H14.8367L11.8032 35.483L12.9619 30.8604Z" fill="white"/>
</g>
</g>
<g id="use7_2">
<g id="s5_2">
<g id="s4_2">
<path id="use2_4" d="M17.0194 8.50098L18.1781 13.1237L15.1447 10.2667H18.8942L15.8608 13.1237L17.0194 8.50098Z" fill="white"/>
<path id="use3_4" d="M17.0194 17.4448L18.1781 22.0675L15.1447 19.2105H18.8942L15.8608 22.0675L17.0194 17.4448Z" fill="white"/>
<path id="use4_4" d="M17.0194 26.3887L18.1781 31.0114L15.1447 28.1544H18.8942L15.8608 31.0114L17.0194 26.3887Z" fill="white"/>
</g>
<path id="use5_2" d="M17.0194 35.3323L18.1781 39.955L15.1447 37.098H18.8942L15.8608 39.955L17.0194 35.3323Z" fill="white"/>
</g>
<g id="use6_3">
<path id="s_3" d="M21.077 4.02905L22.2357 8.65173L19.2022 5.79476H22.9518L19.9183 8.65173L21.077 4.02905Z" fill="white"/>
<path id="use2_5" d="M21.077 12.9729L22.2357 17.5956L19.2022 14.7386H22.9518L19.9183 17.5956L21.077 12.9729Z" fill="white"/>
<path id="use3_5" d="M21.077 21.9165L22.2357 26.5392L19.2022 23.6822H22.9518L19.9183 26.5392L21.077 21.9165Z" fill="white"/>
<path id="use4_5" d="M21.077 30.8604L22.2357 35.483L19.2022 32.6261H22.9518L19.9183 35.483L21.077 30.8604Z" fill="white"/>
</g>
</g>
</g>
<g id="use9">
<g id="s5_3">
<g id="s4_3">
<path id="use2_6" d="M25.1346 8.50098L26.2932 13.1237L23.2598 10.2667H27.0093L23.9759 13.1237L25.1346 8.50098Z" fill="white"/>
<path id="use3_6" d="M25.1346 17.4448L26.2932 22.0675L23.2598 19.2105H27.0093L23.9759 22.0675L25.1346 17.4448Z" fill="white"/>
<path id="use4_6" d="M25.1346 26.3887L26.2932 31.0114L23.2598 28.1544H27.0093L23.9759 31.0114L25.1346 26.3887Z" fill="white"/>
</g>
<path id="use5_3" d="M25.1346 35.3323L26.2932 39.955L23.2598 37.098H27.0093L23.9759 39.955L25.1346 35.3323Z" fill="white"/>
</g>
<g id="use6_4">
<path id="s_4" d="M29.1921 4.02905L30.3508 8.65173L27.3173 5.79476H31.0669L28.0334 8.65173L29.1921 4.02905Z" fill="white"/>
<path id="use2_7" d="M29.1921 12.9729L30.3508 17.5956L27.3173 14.7386H31.0669L28.0334 17.5956L29.1921 12.9729Z" fill="white"/>
<path id="use3_7" d="M29.1921 21.9165L30.3508 26.5392L27.3173 23.6822H31.0669L28.0334 26.5392L29.1921 21.9165Z" fill="white"/>
<path id="use4_7" d="M29.1921 30.8604L30.3508 35.483L27.3173 32.6261H31.0669L28.0334 35.483L29.1921 30.8604Z" fill="white"/>
</g>
</g>
<g id="use10">
<g id="s4_4">
<path id="use2_8" d="M33.2496 8.50098L34.4083 13.1237L31.3748 10.2667H35.1244L32.0909 13.1237L33.2496 8.50098Z" fill="white"/>
<path id="use3_8" d="M33.2496 17.4448L34.4083 22.0675L31.3748 19.2105H35.1244L32.0909 22.0675L33.2496 17.4448Z" fill="white"/>
<path id="use4_8" d="M33.2496 26.3887L34.4083 31.0114L31.3748 28.1544H35.1244L32.0909 31.0114L33.2496 26.3887Z" fill="white"/>
</g>
<path id="use5_4" d="M33.2496 35.3323L34.4083 39.955L31.3748 37.098H35.1244L32.0909 39.955L33.2496 35.3323Z" fill="white"/>
</g>
</g>
</g>
</g>
</g>
<defs>
<filter id="filter0_dii_19_4839" x="0" y="0" width="72" height="79" filterUnits="userSpaceOnUse" color-interpolation-filters="sRGB">
<feFlood flood-opacity="0" result="BackgroundImageFix"/>
<feColorMatrix in="SourceAlpha" type="matrix" values="0 0 0 0 0 0 0 0 0 0 0 0 0 0 0 0 0 0 127 0" result="hardAlpha"/>
<feOffset dy="-4"/>
<feGaussianBlur stdDeviation="2"/>
<feComposite in2="hardAlpha" operator="out"/>
<feColorMatrix type="matrix" values="0 0 0 0 0 0 0 0 0 0 0 0 0 0 0 0 0 0 0.25 0"/>
<feBlend mode="normal" in2="BackgroundImageFix" result="effect1_dropShadow_19_4839"/>
<feBlend mode="normal" in="SourceGraphic" in2="effect1_dropShadow_19_4839" result="shape"/>
<feColorMatrix in="SourceAlpha" type="matrix" values="0 0 0 0 0 0 0 0 0 0 0 0 0 0 0 0 0 0 127 0" result="hardAlpha"/>
<feOffset dy="7"/>
<feGaussianBlur stdDeviation="4.5"/>
<feComposite in2="hardAlpha" operator="arithmetic" k2="-1" k3="1"/>
<feColorMatrix type="matrix" values="0 0 0 0 0 0 0 0 0 0 0 0 0 0 0 0 0 0 0.25 0"/>
<feBlend mode="normal" in2="shape" result="effect2_innerShadow_19_4839"/>
<feColorMatrix in="SourceAlpha" type="matrix" values="0 0 0 0 0 0 0 0 0 0 0 0 0 0 0 0 0 0 127 0" result="hardAlpha"/>
<feOffset dy="-5"/>
<feGaussianBlur stdDeviation="7"/>
<feComposite in2="hardAlpha" operator="arithmetic" k2="-1" k3="1"/>
<feColorMatrix type="matrix" values="0 0 0 0 0 0 0 0 0 0 0 0 0 0 0 0 0 0 0.25 0"/>
<feBlend mode="normal" in2="effect2_innerShadow_19_4839" result="effect3_innerShadow_19_4839"/>
</filter>
<clipPath id="clip0_19_4839">
<rect x="4" y="8" width="64" height="64" rx="32" fill="white"/>
</clipPath>
</defs>
</svg>
