<svg width="64" height="64" viewBox="0 0 64 64" fill="none" xmlns="http://www.w3.org/2000/svg">
<g filter="url(#filter0_ii_19_4839)">
<g clip-path="url(#clip0_19_4839)">
<path d="M121.3 0H-0.299988V64H121.3V0Z" fill="#B22234"/>
<path d="M-0.299988 7.38452H121.3ZM121.3 17.2307H-0.299988ZM-0.299988 27.0768H121.3ZM121.3 36.923H-0.299988ZM-0.299988 46.7691H121.3ZM121.3 56.6153H-0.299988Z" fill="black"/>
<path d="M-0.299988 7.38452H121.3M121.3 17.2307H-0.299988M-0.299988 27.0768H121.3M121.3 36.923H-0.299988M-0.299988 46.7691H121.3M121.3 56.6153H-0.299988" stroke="white" stroke-width="4.92308"/>
<path d="M34 -10H-15V34.45H34V-10Z" fill="#3C3B6E"/>
<path d="M0.846838 -3.97095L2.00552 0.651732L-1.02795 -2.20524H2.72163L-0.311847 0.651732L0.846838 -3.97095Z" fill="white"/>
<path d="M0.846838 4.9729L2.00552 9.59558L-1.02795 6.73861H2.72163L-0.311847 9.59558L0.846838 4.9729Z" fill="white"/>
<path d="M0.846838 13.9165L2.00552 18.5392L-1.02795 15.6822H2.72163L-0.311847 18.5392L0.846838 13.9165Z" fill="white"/>
<path d="M0.846838 22.8604L2.00552 27.483L-1.02795 24.6261H2.72163L-0.311847 27.483L0.846838 22.8604Z" fill="white"/>
<path d="M4.90439 0.500977L6.06308 5.12366L3.0296 2.26668H6.77919L3.74571 5.12366L4.90439 0.500977Z" fill="white"/>
<path d="M4.90439 9.44482L6.06308 14.0675L3.0296 11.2105H6.77919L3.74571 14.0675L4.90439 9.44482Z" fill="white"/>
<path d="M4.90439 18.3887L6.06308 23.0114L3.0296 20.1544H6.77919L3.74571 23.0114L4.90439 18.3887Z" fill="white"/>
<path d="M4.90439 27.3323L6.06308 31.955L3.0296 29.098H6.77919L3.74571 31.955L4.90439 27.3323Z" fill="white"/>
<path d="M8.96189 -3.97095L10.1206 0.651732L7.0871 -2.20524H10.8367L7.8032 0.651732L8.96189 -3.97095Z" fill="white"/>
<path d="M8.96189 4.9729L10.1206 9.59558L7.0871 6.73861H10.8367L7.8032 9.59558L8.96189 4.9729Z" fill="white"/>
<path d="M8.96189 13.9165L10.1206 18.5392L7.0871 15.6822H10.8367L7.8032 18.5392L8.96189 13.9165Z" fill="white"/>
<path d="M8.96189 22.8604L10.1206 27.483L7.0871 24.6261H10.8367L7.8032 27.483L8.96189 22.8604Z" fill="white"/>
<path d="M13.0194 0.500977L14.1781 5.12366L11.1447 2.26668H14.8942L11.8608 5.12366L13.0194 0.500977Z" fill="white"/>
<path d="M13.0194 9.44482L14.1781 14.0675L11.1447 11.2105H14.8942L11.8608 14.0675L13.0194 9.44482Z" fill="white"/>
<path d="M13.0194 18.3887L14.1781 23.0114L11.1447 20.1544H14.8942L11.8608 23.0114L13.0194 18.3887Z" fill="white"/>
<path d="M13.0194 27.3323L14.1781 31.955L11.1447 29.098H14.8942L11.8608 31.955L13.0194 27.3323Z" fill="white"/>
<path d="M17.077 -3.97095L18.2357 0.651732L15.2022 -2.20524H18.9518L15.9183 0.651732L17.077 -3.97095Z" fill="white"/>
<path d="M17.077 4.9729L18.2357 9.59558L15.2022 6.73861H18.9518L15.9183 9.59558L17.077 4.9729Z" fill="white"/>
<path d="M17.077 13.9165L18.2357 18.5392L15.2022 15.6822H18.9518L15.9183 18.5392L17.077 13.9165Z" fill="white"/>
<path d="M17.077 22.8604L18.2357 27.483L15.2022 24.6261H18.9518L15.9183 27.483L17.077 22.8604Z" fill="white"/>
<path d="M21.1346 0.500977L22.2932 5.12366L19.2598 2.26668H23.0093L19.9759 5.12366L21.1346 0.500977Z" fill="white"/>
<path d="M21.1346 9.44482L22.2932 14.0675L19.2598 11.2105H23.0093L19.9759 14.0675L21.1346 9.44482Z" fill="white"/>
<path d="M21.1346 18.3887L22.2932 23.0114L19.2598 20.1544H23.0093L19.9759 23.0114L21.1346 18.3887Z" fill="white"/>
<path d="M21.1346 27.3323L22.2932 31.955L19.2598 29.098H23.0093L19.9759 31.955L21.1346 27.3323Z" fill="white"/>
<path d="M25.1921 -3.97095L26.3508 0.651732L23.3173 -2.20524H27.0669L24.0334 0.651732L25.1921 -3.97095Z" fill="white"/>
<path d="M25.1921 4.9729L26.3508 9.59558L23.3173 6.73861H27.0669L24.0334 9.59558L25.1921 4.9729Z" fill="white"/>
<path d="M25.1921 13.9165L26.3508 18.5392L23.3173 15.6822H27.0669L24.0334 18.5392L25.1921 13.9165Z" fill="white"/>
<path d="M25.1921 22.8604L26.3508 27.483L23.3173 24.6261H27.0669L24.0334 27.483L25.1921 22.8604Z" fill="white"/>
<path d="M29.2496 0.500977L30.4083 5.12366L27.3748 2.26668H31.1244L28.0909 5.12366L29.2496 0.500977Z" fill="white"/>
<path d="M29.2496 9.44482L30.4083 14.0675L27.3748 11.2105H31.1244L28.0909 14.0675L29.2496 9.44482Z" fill="white"/>
<path d="M29.2496 18.3887L30.4083 23.0114L27.3748 20.1544H31.1244L28.0909 23.0114L29.2496 18.3887Z" fill="white"/>
<path d="M29.2496 27.3323L30.4083 31.955L27.3748 29.098H31.1244L28.0909 31.955L29.2496 27.3323Z" fill="white"/>
</g>
</g>
<defs>
<filter id="filter0_ii_19_4839" x="-4" y="-4" width="69" height="72" filterUnits="userSpaceOnUse" color-interpolation-filters="sRGB">
<feFlood flood-opacity="0" result="BackgroundImageFix"/>
<feBlend mode="normal" in="SourceGraphic" in2="BackgroundImageFix" result="shape"/>
<feColorMatrix in="SourceAlpha" type="matrix" values="0 0 0 0 0 0 0 0 0 0 0 0 0 0 0 0 0 0 127 0" result="hardAlpha"/>
<feOffset dx="-5" dy="-8"/>
<feGaussianBlur stdDeviation="2"/>
<feComposite in2="hardAlpha" operator="arithmetic" k2="-1" k3="1"/>
<feColorMatrix type="matrix" values="0 0 0 0 0 0 0 0 0 0 0 0 0 0 0 0 0 0 0.25 0"/>
<feBlend mode="normal" in2="shape" result="effect1_innerShadow_19_4839"/>
<feColorMatrix in="SourceAlpha" type="matrix" values="0 0 0 0 0 0 0 0 0 0 0 0 0 0 0 0 0 0 127 0" result="hardAlpha"/>
<feOffset dx="1" dy="4"/>
<feGaussianBlur stdDeviation="2"/>
<feComposite in2="hardAlpha" operator="arithmetic" k2="-1" k3="1"/>
<feColorMatrix type="matrix" values="0 0 0 0 1 0 0 0 0 1 0 0 0 0 1 0 0 0 1 0"/>
<feBlend mode="normal" in2="effect1_innerShadow_19_4839" result="effect2_innerShadow_19_4839"/>
</filter>
<clipPath id="clip0_19_4839">
<rect width="64" height="64" rx="32" fill="white"/>
</clipPath>
</defs>
</svg>
