<svg width="61" height="47" viewBox="0 0 61 47" fill="none" xmlns="http://www.w3.org/2000/svg">
<g id="Bootstrap 2" clip-path="url(#clip0_1_739)">
<path id="Vector" d="M6.80063 6.14225C6.68743 2.94672 9.2202 0 12.6437 0H47.7241C51.1477 0 53.6804 2.94672 53.5672 6.14225C53.4585 9.21188 53.5997 13.1882 54.6177 16.4304C55.639 19.6826 57.3612 21.7383 60.1818 22.0025V24.9975C57.3612 25.2617 55.639 27.3174 54.6177 30.5696C53.5997 33.8118 53.4585 37.7881 53.5672 40.8579C53.6804 44.0533 51.1477 47 47.7241 47H12.6437C9.2202 47 6.68743 44.0533 6.80075 40.8579C6.90938 37.7881 6.76817 33.8118 5.75004 30.5696C4.72887 27.3174 3.00247 25.2617 0.181763 24.9975V22.0025C3.00235 21.7383 4.72887 19.6826 5.75004 16.4304C6.76817 13.1882 6.90938 9.21188 6.80063 6.14225Z" fill="url(#paint0_linear_1_739)"/>
<g id="Vector_2" filter="url(#filter0_d_1_739)">
<path d="M31.4829 35.9939C37.0255 35.9939 40.3655 33.3262 40.3655 28.926C40.3655 25.6 37.9824 23.192 34.4438 22.8108V22.6723C37.0436 22.2565 39.0837 19.8833 39.0837 17.2328C39.0837 13.4564 36.0506 10.9963 31.4288 10.9963H21.0295V35.9939H31.4829ZM25.0737 14.1665H30.4539C33.3786 14.1665 35.0395 15.4484 35.0395 17.7698C35.0395 20.247 33.1078 21.6329 29.6053 21.6329H25.0737V14.1665ZM25.0737 32.8238V24.5952H30.4177C34.2451 24.5952 36.2311 25.981 36.2311 28.6835C36.2311 31.3859 34.2994 32.8238 30.6524 32.8238H25.0737Z" fill="url(#paint1_linear_1_739)"/>
<path d="M31.4829 35.9939C37.0255 35.9939 40.3655 33.3262 40.3655 28.926C40.3655 25.6 37.9824 23.192 34.4438 22.8108V22.6723C37.0436 22.2565 39.0837 19.8833 39.0837 17.2328C39.0837 13.4564 36.0506 10.9963 31.4288 10.9963H21.0295V35.9939H31.4829ZM25.0737 14.1665H30.4539C33.3786 14.1665 35.0395 15.4484 35.0395 17.7698C35.0395 20.247 33.1078 21.6329 29.6053 21.6329H25.0737V14.1665ZM25.0737 32.8238V24.5952H30.4177C34.2451 24.5952 36.2311 25.981 36.2311 28.6835C36.2311 31.3859 34.2994 32.8238 30.6524 32.8238H25.0737Z" stroke="white"/>
</g>
</g>
<defs>
<filter id="filter0_d_1_739" x="4.52954" y="-1.50366" width="52.3359" height="57.9976" filterUnits="userSpaceOnUse" color-interpolation-filters="sRGB">
<feFlood flood-opacity="0" result="BackgroundImageFix"/>
<feColorMatrix in="SourceAlpha" type="matrix" values="0 0 0 0 0 0 0 0 0 0 0 0 0 0 0 0 0 0 127 0" result="hardAlpha"/>
<feOffset dy="4"/>
<feGaussianBlur stdDeviation="8"/>
<feColorMatrix type="matrix" values="0 0 0 0 0 0 0 0 0 0 0 0 0 0 0 0 0 0 0.15 0"/>
<feBlend mode="normal" in2="BackgroundImageFix" result="effect1_dropShadow_1_739"/>
<feBlend mode="normal" in="SourceGraphic" in2="effect1_dropShadow_1_739" result="shape"/>
</filter>
<linearGradient id="paint0_linear_1_739" x1="9.09727" y1="1.24389" x2="60.8297" y2="43.019" gradientUnits="userSpaceOnUse">
<stop stop-color="white"/>
<stop offset="1" stop-color="#EBEBEB"/>
</linearGradient>
<linearGradient id="paint1_linear_1_739" x1="22.8585" y1="12.6417" x2="34.2827" y2="32.2966" gradientUnits="userSpaceOnUse">
<stop stop-color="#305D73"/>
<stop offset="1" stop-color="#7DA4AD"/>
</linearGradient>
<clipPath id="clip0_1_739">
<rect width="60" height="47" fill="white" transform="translate(0.181763)"/>
</clipPath>
</defs>
</svg>
