<?xml version="1.0" encoding="UTF-8" standalone="no"?>
<svg
   width="43"
   height="61"
   viewBox="0 0 43 61"
   fill="none"
   version="1.1"
   id="svg1"
   sodipodi:docname="CSS3--green.svg"
   inkscape:version="1.3.2 (091e20e, 2023-11-25, custom)"
   xmlns:inkscape="http://www.inkscape.org/namespaces/inkscape"
   xmlns:sodipodi="http://sodipodi.sourceforge.net/DTD/sodipodi-0.dtd"
   xmlns="http://www.w3.org/2000/svg"
   xmlns:svg="http://www.w3.org/2000/svg">
  <sodipodi:namedview
     id="namedview1"
     pagecolor="#ffffff"
     bordercolor="#000000"
     borderopacity="0.25"
     inkscape:showpageshadow="2"
     inkscape:pageopacity="0.0"
     inkscape:pagecheckerboard="0"
     inkscape:deskcolor="#d1d1d1"
     inkscape:zoom="9.5169618"
     inkscape:cx="15.393568"
     inkscape:cy="23.431848"
     inkscape:window-width="1350"
     inkscape:window-height="586"
     inkscape:window-x="289"
     inkscape:window-y="469"
     inkscape:window-maximized="0"
     inkscape:current-layer="g3013" />
  <g
     id="CSS3 2"
     clip-path="url(#clip0_1_708)">
    <g
       id="layer1">
      <g
         id="g3013">
        <path
           id="polygon2989"
           d="M42.5454 12.2891L38.7191 55.6718L21.5197 60.4977L4.36766 55.6786L0.54541 12.2891H42.5454Z"
           fill="#EBEBEB"
           style="fill:#232d12;fill-opacity:1" />
        <path
           id="polygon2991"
           d="M35.4434 52.9084L38.7132 15.8359H21.5454V56.8081L35.4434 52.9084Z"
           fill="white"
           style="fill:#313f19;fill-opacity:1" />
        <path
           id="polygon2993"
           d="M9.30713 31.9258L9.77838 37.2473H21.5447V31.9258H9.30713Z"
           fill="#6A8D95"
           style="fill:#bb9f54;fill-opacity:1" />
        <path
           id="polygon2995"
           d="M21.5443 21.1641H21.5262H8.35986L8.83783 26.4857H21.5443V21.1641Z"
           fill="#6A8D95"
           style="fill:#bb9f54;fill-opacity:1" />
        <path
           id="polygon2997"
           d="M21.5455 51.289V45.7523L21.5225 45.7586L15.6667 44.1582L15.2923 39.9141H12.4469H10.0142L10.7508 48.2696L21.5213 51.2958L21.5455 51.289Z"
           fill="#6A8D95"
           style="fill:#bb9f54;fill-opacity:1" />
        <path
           id="path2999"
           d="M10.4302 0.5H16.7985V3.19531H13.0933V5.89063H16.7985V8.58594H10.4302V0.5Z"
           fill="white"
           style="fill:#232d12;fill-opacity:1" />
        <path
           id="path3001"
           d="M18.0688 0.5H24.4372V2.84375H20.732V3.3125H24.4372V8.70312H18.0688V6.24219H21.774V5.77344H18.0688V0.5Z"
           fill="white"
           style="fill:#232d12;fill-opacity:1" />
        <path
           id="path3003"
           d="M25.7134 0.5H32.0817V2.84375H28.3765V3.3125H32.0817V8.70312H25.7134V6.24219H29.4186V5.77344H25.7134V0.5Z"
           fill="white"
           style="fill:#232d12;fill-opacity:1" />
        <path
           id="polygon3005"
           d="M28.0005 37.2565L27.3902 44.1581L21.5259 45.7601V51.2965L32.305 48.2729L32.3841 47.3739L33.6196 33.364L33.7479 31.935L34.6971 21.1641H21.5259V26.4857H28.9349L28.4564 31.935H21.5259V37.2565H28.0005Z"
           fill="#7DA4AD"
           style="fill:#f6d069;fill-opacity:1" />
      </g>
    </g>
  </g>
  <defs
     id="defs1">
    <clipPath
       id="clip0_1_708">
      <rect
         width="42"
         height="60"
         fill="white"
         transform="translate(0.54541 0.5)"
         id="rect1" />
    </clipPath>
  </defs>
</svg>
