<svg width="40" height="40" viewBox="0 0 40 40" fill="none" xmlns="http://www.w3.org/2000/svg">
<g clip-path="url(#clip0_1_531)">
<path d="M37.5 31.25L35.7325 29.4825L32.5 32.715V22.5H30V32.715L26.7675 29.4825L25 31.25L31.25 37.5L37.5 31.25Z" fill="white"/>
<path d="M22.5 35.0001H10V5.00006H20V12.5001C20.002 13.1625 20.266 13.7972 20.7344 14.2656C21.2028 14.7341 21.8376 14.9981 22.5 15.0001H30V18.7501H32.5V12.5001C32.5044 12.3358 32.4732 12.1725 32.4084 12.0214C32.3437 11.8704 32.247 11.7352 32.125 11.6251L23.375 2.87506C23.265 2.75299 23.1297 2.65625 22.9787 2.59151C22.8276 2.52676 22.6643 2.49556 22.5 2.50006H10C9.33757 2.50204 8.70283 2.76606 8.23442 3.23448C7.76601 3.70289 7.50198 4.33763 7.5 5.00006V35.0001C7.50198 35.6625 7.76601 36.2972 8.23442 36.7656C8.70283 37.2341 9.33757 37.4981 10 37.5001H22.5V35.0001ZM22.5 5.50006L29.5 12.5001H22.5V5.50006Z" fill="white"/>
</g>
<defs>
<clipPath id="clip0_1_531">
<rect width="40" height="40" fill="white"/>
</clipPath>
</defs>
</svg>
