<?xml version="1.0" encoding="UTF-8" standalone="no"?>
<!-- Created with Inkscape (http://www.inkscape.org/) -->

<svg
   width="210mm"
   height="297mm"
   viewBox="0 0 210 297"
   version="1.1"
   id="svg1"
   xml:space="preserve"
   inkscape:version="1.3.2 (091e20e, 2023-11-25, custom)"
   sodipodi:docname="es.svg"
   xmlns:inkscape="http://www.inkscape.org/namespaces/inkscape"
   xmlns:sodipodi="http://sodipodi.sourceforge.net/DTD/sodipodi-0.dtd"
   xmlns="http://www.w3.org/2000/svg"
   xmlns:svg="http://www.w3.org/2000/svg"><sodipodi:namedview
     id="namedview1"
     pagecolor="#ffffff"
     bordercolor="#000000"
     borderopacity="0.25"
     inkscape:showpageshadow="2"
     inkscape:pageopacity="0.0"
     inkscape:pagecheckerboard="0"
     inkscape:deskcolor="#d1d1d1"
     inkscape:document-units="mm"
     inkscape:zoom="1.0633188"
     inkscape:cx="465.99384"
     inkscape:cy="584.49077"
     inkscape:window-width="1920"
     inkscape:window-height="1017"
     inkscape:window-x="-8"
     inkscape:window-y="-8"
     inkscape:window-maximized="1"
     inkscape:current-layer="layer1" /><defs
     id="defs1" /><g
     inkscape:label="Capa 1"
     inkscape:groupmode="layer"
     id="layer1"><g
       transform="matrix(0.03527778,0,0,-0.03527778,-68.811807,335.73633)"
       fill="#000000"
       stroke="none"
       id="g3"
       style="fill:#232d12;fill-opacity:1"><path
         d="m 4524,7440 c 16,-187 121,-359 299,-492 43,-32 77,-58 75,-58 -24,0 -249,47 -338,71 -227,60 -473,170 -567,253 -44,38 -45,39 -30,10 29,-53 101,-133 172,-189 158,-125 403,-220 740,-286 227,-44 321,-73 418,-130 112,-66 249,-191 160,-146 -25,13 -96,35 -312,98 l -63,18 18,-21 c 70,-79 262,-197 424,-262 l 45,-18 -45,-12 c -120,-32 -197,-122 -215,-253 l -7,-48 40,42 c 182,185 598,153 823,-64 53,-51 72,-63 98,-63 42,0 99,25 133,57 24,23 31,25 52,15 14,-6 32,-23 42,-37 9,-14 20,-25 24,-25 10,0 30,81 30,122 0,39 -32,114 -62,145 -18,20 -23,21 -32,7 -10,-13 -16,-13 -52,0 -123,43 -206,111 -255,209 -47,92 -93,135 -189,179 -173,79 -189,90 -381,274 -142,136 -240,207 -373,269 -80,38 -184,75 -208,75 -4,0 47,-48 114,-107 178,-156 320,-304 305,-319 -12,-12 -359,191 -507,296 -160,114 -322,300 -352,404 -20,73 -31,66 -24,-14 z M 5977,6434 c 22,-14 53,-66 67,-111 l 7,-21 -62,18 c -82,25 -108,51 -133,137 l -7,22 53,-15 c 29,-9 63,-22 75,-30 z"
         id="path1"
         style="fill:#232d12;fill-opacity:1" /><path
         d="m 4334,6591 c -87,-70 -148,-143 -208,-251 -97,-171 -137,-345 -117,-509 52,-428 357,-738 801,-816 113,-20 344,-19 512,1 74,10 208,17 303,17 198,0 273,-15 415,-85 170,-83 306,-260 346,-448 19,-91 14,-257 -12,-340 -40,-133 -165,-333 -267,-427 -387,-357 -978,-488 -1544,-344 -183,47 -415,145 -560,238 -401,255 -703,686 -801,1143 -46,212 -54,536 -18,715 8,39 13,72 11,73 -6,7 -44,-125 -62,-216 -25,-124 -25,-507 0,-641 105,-551 449,-1045 927,-1329 231,-137 523,-231 812,-262 426,-45 891,69 1253,309 354,233 589,591 614,931 20,286 -61,519 -249,710 -238,242 -521,334 -926,301 -475,-39 -679,-17 -860,90 -124,73 -236,215 -270,343 -19,70 -18,210 2,277 55,185 213,334 398,373 37,7 69,16 72,19 7,6 -32,29 -91,54 -55,24 -387,123 -407,123 -7,-1 -40,-22 -74,-49 z"
         id="path2"
         style="fill:#232d12;fill-opacity:1" /><path
         d="m 3728,6128 c -115,-156 -185,-291 -238,-463 -56,-180 -85.1602,-245.5267 -85.1602,-493.5267 0,-206 22.1602,-224.4733 49.1602,-336.4733 110,-472 406,-851 831,-1065 262,-133 523,-190 810,-177 365,17 668,143 870,360 175,188 221,415 123,612 -47,96 -53,96 -54,2 -1,-96 -24,-165 -86,-258 -95.2799,-142.9198 -282.2473,-283.7276 -845,-303 -186,-6 -389,33 -545,103 -66,29 -67,30 -70,73 -3,46 25,231.5188 39,260 38.8349,133.3686 34.1296,277.5718 31,303 -15,119 -29,152 -86,207 l -54,53 8,-50 c 10,-64 6,-125.645 -9,-153.645 -76,-141 -138.6302,-192.3178 -168,-211.355 -44.7569,-29.0129 -58.6211,-48.2195 -123.0765,-72.311 -60,-27 -99.9235,-3.689 -152.9235,70.311 -134,185 -238,408 -282,610 -71,315 -41,687 75,950 12,28 21,52 19,52 -2,0 -27,-33 -57,-72 z"
         id="path3"
         sodipodi:nodetypes="ccsccccccscccccccccsccccsc"
         style="fill:#232d12;fill-opacity:1" /></g></g></svg>
