<?xml version="1.0" encoding="UTF-8" standalone="no"?>
<svg
   width="61"
   height="61"
   viewBox="0 0 61 61"
   fill="none"
   version="1.1"
   id="svg1"
   sodipodi:docname="HTML5--green.svg"
   inkscape:version="1.3.2 (091e20e, 2023-11-25, custom)"
   xmlns:inkscape="http://www.inkscape.org/namespaces/inkscape"
   xmlns:sodipodi="http://sodipodi.sourceforge.net/DTD/sodipodi-0.dtd"
   xmlns="http://www.w3.org/2000/svg"
   xmlns:svg="http://www.w3.org/2000/svg">
  <sodipodi:namedview
     id="namedview1"
     pagecolor="#ffffff"
     bordercolor="#000000"
     borderopacity="0.25"
     inkscape:showpageshadow="2"
     inkscape:pageopacity="0.0"
     inkscape:pagecheckerboard="0"
     inkscape:deskcolor="#d1d1d1"
     inkscape:zoom="8.3442623"
     inkscape:cx="30.5"
     inkscape:cy="30.559921"
     inkscape:window-width="1350"
     inkscape:window-height="1080"
     inkscape:window-x="452"
     inkscape:window-y="0"
     inkscape:window-maximized="0"
     inkscape:current-layer="HTML5" />
  <g
     id="HTML5"
     clip-path="url(#clip0_1_690)">
    <path
       id="Vector"
       d="M13.3375 0.5H16.0328V3.17188H18.5172V0.5H21.2125V8.58594H18.5172V5.89063H16.0563V8.58594H13.3375M24.775 3.19531H22.3961V0.5H29.861V3.19531H27.4703V8.58594H24.775M31.0446 0.5H33.8688L35.6031 3.34766L37.3375 0.5H40.1617V8.58594H37.4664V4.57813L35.5797 7.48438L33.693 4.57813V8.58594H31.0446M41.4977 0.5H44.193V5.91406H48.0133V8.58594H41.4977"
       fill="white"
       style="fill:#232d12;fill-opacity:1" />
    <path
       id="Vector_2"
       d="M13.2477 55.6953L9.38049 12.2891H51.8961L48.0289 55.6719L30.6031 60.5"
       fill="#EBEBEB"
       style="fill:#232d12;fill-opacity:1" />
    <path
       id="Vector_3"
       d="M30.6364 56.8047V15.8477H48.0153L44.6989 52.8789"
       fill="white"
       style="fill:#313f19;fill-opacity:1" />
    <path
       id="Vector_4"
       d="M17.277 21.1562H30.6364V26.4766H23.1129L23.6051 31.9258H30.6364V37.2344H18.7301M18.9645 39.9062H24.3082L24.6832 44.1602L30.6364 45.7539V51.3086L19.7145 48.2617"
       fill="#6A8D95"
       style="fill:#bb9f54;fill-opacity:1" />
    <path
       id="Vector_5"
       d="M43.9469 21.1562H30.611V26.4766H43.4547M42.9742 31.9258H30.611V37.2461H37.1735L36.5524 44.1602L30.611 45.7539V51.2852L41.5094 48.2617"
       fill="#7DA4AD"
       style="fill:#f6d069;fill-opacity:1" />
  </g>
  <defs
     id="defs1">
    <clipPath
       id="clip0_1_690">
      <rect
         width="60"
         height="60"
         fill="white"
         transform="translate(0.636353 0.5)"
         id="rect1" />
    </clipPath>
  </defs>
</svg>
