<?xml version="1.0" encoding="UTF-8" standalone="no"?>
<svg
   height="2500"
   viewBox="2.59 0 214.09101008 224"
   width="2361"
   version="1.1"
   id="svg4"
   sodipodi:docname="Jira-white.svg"
   inkscape:version="1.3.2 (091e20e, 2023-11-25, custom)"
   xmlns:inkscape="http://www.inkscape.org/namespaces/inkscape"
   xmlns:sodipodi="http://sodipodi.sourceforge.net/DTD/sodipodi-0.dtd"
   xmlns:xlink="http://www.w3.org/1999/xlink"
   xmlns="http://www.w3.org/2000/svg"
   xmlns:svg="http://www.w3.org/2000/svg">
  <defs
     id="defs4">
    <linearGradient
       id="linearGradient5"
       gradientTransform="matrix(1 0 0 -1 0 264)"
       gradientUnits="userSpaceOnUse"
       x1="102.4"
       x2="56.15"
       y1="218.63"
       y2="172.39">
      <stop
         offset="0.18000001"
         stop-color="#0052cc"
         id="stop4"
         style="stop-color:#e2e2e2;stop-opacity:1;" />
      <stop
         offset="1"
         stop-color="#2684ff"
         id="stop5"
         style="stop-color:#fbfbfb;stop-opacity:1;" />
    </linearGradient>
  </defs>
  <sodipodi:namedview
     id="namedview4"
     pagecolor="#ffffff"
     bordercolor="#000000"
     borderopacity="0.25"
     inkscape:showpageshadow="2"
     inkscape:pageopacity="0.0"
     inkscape:pagecheckerboard="0"
     inkscape:deskcolor="#d1d1d1"
     inkscape:zoom="0.3284"
     inkscape:cx="1179.9635"
     inkscape:cy="1250"
     inkscape:window-width="1920"
     inkscape:window-height="1017"
     inkscape:window-x="-8"
     inkscape:window-y="-8"
     inkscape:window-maximized="1"
     inkscape:current-layer="svg4" />
  <linearGradient
     id="a"
     gradientTransform="matrix(0.97069033,0,0,-0.97069033,5.2463652,259.54493)"
     gradientUnits="userSpaceOnUse"
     x1="102.4"
     x2="56.15"
     y1="218.63"
     y2="172.39">
    <stop
       offset="0.18000001"
       stop-color="#0052cc"
       id="stop1"
       style="stop-color:#e2e2e2;stop-opacity:1;" />
    <stop
       offset="1"
       stop-color="#2684ff"
       id="stop2"
       style="stop-color:#fbfbfb;stop-opacity:1;" />
  </linearGradient>
  <linearGradient
     id="b"
     x1="114.65"
     x2="160.81"
     xlink:href="#linearGradient5"
     y1="85.77"
     y2="131.92"
     gradientTransform="matrix(0.97069033,0,0,0.97069033,5.2463652,3.282683)" />
  <path
     d="M 213.03234,105.91377 119.4675,12.348931 110.40125,3.282683 39.967958,73.715973 7.7604532,105.91377 a 8.629437,8.629437 0 0 0 0,12.17246 l 64.3470618,64.34706 38.293735,38.28403 70.42359,-70.43329 1.09688,-1.08718 31.11062,-31.06209 a 8.6100232,8.6100232 0 0 0 0,-12.22099 z M 110.40125,144.14926 78.251985,112 110.40125,79.850736 142.54081,112 Z"
     fill="#2684ff"
     id="path2"
     style="fill:#fbfbfb;fill-opacity:1;stroke-width:0.97069" />
  <path
     d="M 110.40125,79.850736 A 54.115986,54.115986 0 0 1 110.16829,3.5447694 L 39.822354,73.861577 78.106381,112.1456 Z"
     fill="url(#a)"
     id="path3"
     style="fill:url(#a);stroke-width:0.97069" />
  <path
     d="m 142.62817,111.91264 -32.22692,32.23662 a 54.1354,54.1354 0 0 1 0,76.54864 l 70.54007,-70.50124 z"
     fill="url(#b)"
     id="path4"
     style="fill:url(#b);stroke-width:0.97069" />
</svg>
