<svg width="41" height="41" viewBox="0 0 41 41" fill="none" xmlns="http://www.w3.org/2000/svg">
<g id="Position">
<path id="Vector" d="M20.5002 23.2309C24.7795 23.2309 28.2485 19.7619 28.2485 15.4827C28.2485 11.2034 24.7795 7.73438 20.5002 7.73438C16.221 7.73438 12.752 11.2034 12.752 15.4827C12.752 19.7619 16.221 23.2309 20.5002 23.2309Z" fill="#2A3517"/>
<g id="Group">
<path id="Vector_2" d="M20.5008 24.3803C15.5948 24.3803 11.6035 20.389 11.6035 15.4832C11.6035 10.5774 15.5948 6.58594 20.5008 6.58594C25.4067 6.58594 29.398 10.5772 29.398 15.4832C29.398 20.3891 25.4067 24.3803 20.5008 24.3803ZM20.5008 8.8841C16.8621 8.8841 13.9017 11.8443 13.9017 15.4832C13.9017 19.1218 16.8621 22.0821 20.5008 22.0821C24.1394 22.0821 27.0998 19.1218 27.0998 15.4832C27.0998 11.8443 24.1394 8.8841 20.5008 8.8841Z" fill="#CD0303"/>
<path id="Vector_3" d="M20.5008 0C11.9633 0 5.01758 6.94574 5.01758 15.4832C5.01758 21.2544 8.19203 26.2977 12.8862 28.9603L19.5056 40.4254C19.7109 40.781 20.0903 41 20.5008 41C20.9112 41 21.2907 40.781 21.4959 40.4254L28.2245 28.7711C28.5419 28.2215 28.3535 27.5188 27.804 27.2015C27.2542 26.8841 26.5516 27.0725 26.2344 27.6221L20.5009 37.5528L16.3755 30.4073C17.6895 30.7711 19.0727 30.9663 20.5009 30.9663C21.1355 30.9663 21.65 30.4519 21.65 29.8172C21.65 29.1826 21.1354 28.6681 20.5009 28.6681C13.2306 28.6681 7.3159 22.7533 7.3159 15.4831C7.3159 8.21289 13.2306 2.29816 20.5008 2.29816C27.771 2.29816 33.6858 8.21297 33.6858 15.4832C33.6858 18.7585 32.4767 21.8989 30.2813 24.3255C29.8556 24.7962 29.8918 25.5227 30.3625 25.9486C30.833 26.3743 31.5597 26.3379 31.9856 25.8674C34.5638 23.0173 35.9839 19.3295 35.9839 15.4833C35.984 6.94574 29.0382 0 20.5008 0Z" fill="#CD0303"/>
</g>
</g>
</svg>
