<?xml version="1.0" encoding="UTF-8" standalone="no"?>
<svg
   width="61"
   height="37"
   viewBox="0 0 61 37"
   fill="none"
   version="1.1"
   id="svg1"
   sodipodi:docname="Tailwind--green.svg"
   inkscape:version="1.3.2 (091e20e, 2023-11-25, custom)"
   xmlns:inkscape="http://www.inkscape.org/namespaces/inkscape"
   xmlns:sodipodi="http://sodipodi.sourceforge.net/DTD/sodipodi-0.dtd"
   xmlns="http://www.w3.org/2000/svg"
   xmlns:svg="http://www.w3.org/2000/svg">
  <sodipodi:namedview
     id="namedview1"
     pagecolor="#ffffff"
     bordercolor="#000000"
     borderopacity="0.25"
     inkscape:showpageshadow="2"
     inkscape:pageopacity="0.0"
     inkscape:pagecheckerboard="0"
     inkscape:deskcolor="#d1d1d1"
     inkscape:zoom="11.360656"
     inkscape:cx="30.499999"
     inkscape:cy="18.52886"
     inkscape:window-width="1366"
     inkscape:window-height="705"
     inkscape:window-x="243"
     inkscape:window-y="1072"
     inkscape:window-maximized="1"
     inkscape:current-layer="svg1" />
  <g
     id="Tailwind"
     clip-path="url(#clip0_1_726)"
     style="fill:#232d12;fill-opacity:1">
    <g
       id="Clip path group"
       style="fill:#232d12;fill-opacity:1">
      <mask
         id="mask0_1_726"
         maskUnits="userSpaceOnUse"
         x="0"
         y="0"
         width="61"
         height="36"
         style="mask-type:luminance">
        <g
           id="prefix__clip0">
          <path
             id="Vector"
             d="M0.45459 0.5H60.4546V35.8455H0.45459V0.5Z"
             fill="white" />
        </g>
      </mask>
      <g
         mask="url(#mask0_1_726)"
         id="g1"
         style="fill:#232d12;fill-opacity:1">
        <g
           id="Group"
           style="fill:#232d12;fill-opacity:1">
          <path
             id="Vector_2"
             fill-rule="evenodd"
             clip-rule="evenodd"
             d="M30.4546 0.5C22.4546 0.5 17.4546 4.42727 15.4546 12.2818C18.4546 8.35455 21.9546 6.88182 25.9546 7.86364C28.2368 8.42327 29.8679 10.0498 31.6735 11.8487C34.6146 14.78 38.019 18.1727 45.4546 18.1727C53.4546 18.1727 58.4546 14.2455 60.4546 6.39091C57.4546 10.3182 53.9546 11.7909 49.9546 10.8091C47.6724 10.2495 46.0413 8.62291 44.2357 6.824C41.2946 3.89273 37.8901 0.5 30.4546 0.5ZM15.4546 18.1727C7.45459 18.1727 2.45459 22.1 0.45459 29.9545C3.45459 26.0273 6.95459 24.5545 10.9546 25.5364C13.2368 26.0971 14.8679 27.7225 16.6735 29.5215C19.6146 32.4527 23.019 35.8455 30.4546 35.8455C38.4546 35.8455 43.4546 31.9182 45.4546 24.0636C42.4546 27.9909 38.9546 29.4636 34.9546 28.4818C32.6724 27.9222 31.0413 26.2956 29.2357 24.4967C26.2946 21.5655 22.8901 18.1727 15.4546 18.1727Z"
             fill="white"
             style="fill:#232d12;fill-opacity:1" />
        </g>
      </g>
    </g>
  </g>
  <defs
     id="defs1">
    <clipPath
       id="clip0_1_726">
      <rect
         width="60"
         height="36"
         fill="white"
         transform="translate(0.45459 0.5)"
         id="rect1" />
    </clipPath>
  </defs>
</svg>
