<?xml version="1.0" encoding="UTF-8" standalone="no"?>
<svg
   width="23"
   height="23"
   viewBox="0 0 23 23"
   fill="none"
   version="1.1"
   id="svg1"
   sodipodi:docname="Typescript--green.svg"
   inkscape:version="1.3.2 (091e20e, 2023-11-25, custom)"
   xmlns:inkscape="http://www.inkscape.org/namespaces/inkscape"
   xmlns:sodipodi="http://sodipodi.sourceforge.net/DTD/sodipodi-0.dtd"
   xmlns="http://www.w3.org/2000/svg"
   xmlns:svg="http://www.w3.org/2000/svg">
  <sodipodi:namedview
     id="namedview1"
     pagecolor="#ffffff"
     bordercolor="#000000"
     borderopacity="0.25"
     inkscape:showpageshadow="2"
     inkscape:pageopacity="0.0"
     inkscape:pagecheckerboard="0"
     inkscape:deskcolor="#d1d1d1"
     inkscape:zoom="5.5326088"
     inkscape:cx="60.821217"
     inkscape:cy="13.104125"
     inkscape:window-width="1920"
     inkscape:window-height="1017"
     inkscape:window-x="-8"
     inkscape:window-y="-8"
     inkscape:window-maximized="1"
     inkscape:current-layer="svg1" />
  <g
     id="Typescript"
     clip-path="url(#clip0_1_544)">
    <path
       id="Vector"
       d="M 20.7356,0 H 2.68999 C 1.48049,0 0.5,1.00561 0.5,2.24609 V 20.7539 C 0.5,21.9944 1.48049,23 2.68999,23 H 20.7356 c 1.2095,0 2.1899,-1.0056 2.1899,-2.2461 V 2.24609 C 22.9255,1.00561 21.9451,0 20.7356,0 Z"
       fill="#ffffff"
       style="display:inline" />
    <path
       id="Vector_2"
       d="M20.7356 0H2.68999C1.48049 0 0.5 1.00561 0.5 2.24609V20.7539C0.5 21.9944 1.48049 23 2.68999 23H20.7356C21.9451 23 22.9255 21.9944 22.9255 20.7539V2.24609C22.9255 1.00561 21.9451 0 20.7356 0Z"
       fill="white"
       style="fill:#232d12;fill-opacity:1" />
    <path
       id="Vector_3"
       fill-rule="evenodd"
       clip-rule="evenodd"
       d="m 14.3815,18.3023 v 2.2488 c 0.3564,0.1874 0.778,0.3279 1.2647,0.4216 0.4867,0.0937 0.9996,0.1406 1.5389,0.1406 0.5256,0 1.0248,-0.0515 1.4978,-0.1546 0.473,-0.1031 0.8877,-0.2729 1.2442,-0.5095 0.3564,-0.2366 0.6386,-0.5458 0.8465,-0.9277 0.208,-0.3818 0.3119,-0.8538 0.3119,-1.416 0,-0.4076 -0.0594,-0.7648 -0.1782,-1.0717 -0.1188,-0.3069 -0.2902,-0.5798 -0.5141,-0.8187 -0.2239,-0.2389 -0.4924,-0.4533 -0.8054,-0.6431 -0.3131,-0.1897 -0.6661,-0.3689 -1.0591,-0.5375 -0.2879,-0.1219 -0.5461,-0.2402 -0.7746,-0.3549 -0.2285,-0.1148 -0.4227,-0.232 -0.5827,-0.3514 -0.16,-0.1195 -0.2833,-0.246 -0.3702,-0.3795 -0.0868,-0.1336 -0.1302,-0.2846 -0.1302,-0.4533 0,-0.1546 0.0388,-0.294 0.1165,-0.4181 0.0777,-0.1242 0.1874,-0.2308 0.3291,-0.3198 0.1417,-0.089 0.3153,-0.1581 0.5209,-0.2073 0.2057,-0.0492 0.4342,-0.0738 0.6855,-0.0738 0.1828,0 0.3759,0.0141 0.5792,0.0422 0.2034,0.0281 0.4079,0.0714 0.6136,0.13 0.2056,0.0585 0.4055,0.1323 0.5998,0.2213 0.1942,0.0891 0.3736,0.1921 0.5381,0.3093 v -2.1013 c -0.3336,-0.1312 -0.6981,-0.2284 -1.0934,-0.2916 -0.3953,-0.0633 -0.8489,-0.0949 -1.3607,-0.0949 -0.521,0 -1.0145,0.0574 -1.4806,0.1722 -0.4661,0.1148 -0.8763,0.294 -1.2305,0.5376 -0.3541,0.2436 -0.634,0.554 -0.8397,0.9312 -0.2056,0.3771 -0.3085,0.828 -0.3085,1.3527 0,0.67 0.1886,1.2416 0.5656,1.7148 0.377,0.4732 0.9494,0.8737 1.7171,1.2017 0.3016,0.1265 0.5827,0.2506 0.8432,0.3724 0.2605,0.1219 0.4855,0.2484 0.6751,0.3795 0.1897,0.1312 0.3394,0.2741 0.4491,0.4287 0.1097,0.1546 0.1645,0.3303 0.1645,0.5271 0,0.1452 -0.0343,0.2799 -0.1028,0.4041 -0.0686,0.1241 -0.1726,0.2319 -0.3119,0.3232 -0.1394,0.0914 -0.3131,0.1628 -0.521,0.2144 -0.208,0.0515 -0.4513,0.0773 -0.7301,0.0773 -0.4752,0 -0.9459,-0.0855 -1.4121,-0.2565 -0.4661,-0.171 -0.898,-0.4275 -1.2955,-0.7695 z m -3.6862,-5.5408 h 2.8129 V 10.916 H 5.66797 v 1.8455 h 2.79908 v 8.217 h 2.22825 z"
       fill="#6a8d95"
       style="display:inline;fill:#f6d069;fill-opacity:1;fill-rule:evenodd" />
  </g>
  <defs
     id="defs1">
    <clipPath
       id="clip0_1_544">
      <rect
         width="22.4255"
         height="23"
         fill="white"
         transform="translate(0.5)"
         id="rect1" />
    </clipPath>
  </defs>
</svg>
