<svg width="23" height="23" viewBox="0 0 23 23" fill="none" xmlns="http://www.w3.org/2000/svg">
<g id="Typescript" clip-path="url(#clip0_1_544)">
<path id="Vector" d="M20.7356 0H2.68999C1.48049 0 0.5 1.00561 0.5 2.24609V20.7539C0.5 21.9944 1.48049 23 2.68999 23H20.7356C21.9451 23 22.9255 21.9944 22.9255 20.7539V2.24609C22.9255 1.00561 21.9451 0 20.7356 0Z" fill="white"/>
<path id="Vector_2" d="M20.7356 0H2.68999C1.48049 0 0.5 1.00561 0.5 2.24609V20.7539C0.5 21.9944 1.48049 23 2.68999 23H20.7356C21.9451 23 22.9255 21.9944 22.9255 20.7539V2.24609C22.9255 1.00561 21.9451 0 20.7356 0Z" fill="white"/>
<path id="Vector_3" fill-rule="evenodd" clip-rule="evenodd" d="M14.3815 18.3023V20.5511C14.7379 20.7385 15.1595 20.879 15.6462 20.9727C16.1329 21.0664 16.6458 21.1133 17.1851 21.1133C17.7107 21.1133 18.2099 21.0618 18.6829 20.9587C19.1559 20.8556 19.5706 20.6858 19.9271 20.4492C20.2835 20.2126 20.5657 19.9034 20.7736 19.5215C20.9816 19.1397 21.0855 18.6677 21.0855 18.1055C21.0855 17.6979 21.0261 17.3407 20.9073 17.0338C20.7885 16.7269 20.6171 16.454 20.3932 16.2151C20.1693 15.9762 19.9008 15.7618 19.5878 15.572C19.2747 15.3823 18.9217 15.2031 18.5287 15.0345C18.2408 14.9126 17.9826 14.7943 17.7541 14.6796C17.5256 14.5648 17.3314 14.4476 17.1714 14.3282C17.0114 14.2087 16.8881 14.0822 16.8012 13.9487C16.7144 13.8151 16.671 13.6641 16.671 13.4954C16.671 13.3408 16.7098 13.2014 16.7875 13.0773C16.8652 12.9531 16.9749 12.8465 17.1166 12.7575C17.2583 12.6685 17.4319 12.5994 17.6375 12.5502C17.8432 12.501 18.0717 12.4764 18.323 12.4764C18.5058 12.4764 18.6989 12.4905 18.9022 12.5186C19.1056 12.5467 19.3101 12.59 19.5158 12.6486C19.7214 12.7071 19.9213 12.7809 20.1156 12.8699C20.3098 12.959 20.4892 13.062 20.6537 13.1792V11.0779C20.3201 10.9467 19.9556 10.8495 19.5603 10.7863C19.165 10.723 18.7114 10.6914 18.1996 10.6914C17.6786 10.6914 17.1851 10.7488 16.719 10.8636C16.2529 10.9784 15.8427 11.1576 15.4885 11.4012C15.1344 11.6448 14.8545 11.9552 14.6488 12.3324C14.4432 12.7095 14.3403 13.1604 14.3403 13.6851C14.3403 14.3551 14.5289 14.9267 14.9059 15.3999C15.2829 15.8731 15.8553 16.2736 16.623 16.6016C16.9246 16.7281 17.2057 16.8522 17.4662 16.974C17.7267 17.0959 17.9517 17.2224 18.1413 17.3535C18.331 17.4847 18.4807 17.6276 18.5904 17.7822C18.7001 17.9368 18.7549 18.1125 18.7549 18.3093C18.7549 18.4545 18.7206 18.5892 18.6521 18.7134C18.5835 18.8375 18.4795 18.9453 18.3402 19.0366C18.2008 19.128 18.0271 19.1994 17.8192 19.251C17.6112 19.3025 17.3679 19.3283 17.0891 19.3283C16.6139 19.3283 16.1432 19.2428 15.677 19.0718C15.2109 18.9008 14.779 18.6443 14.3815 18.3023ZM10.6953 12.7615H13.5082V10.916H5.66797V12.7615H8.46705V20.9785H10.6953V12.7615Z" fill="#6A8D95"/>
</g>
<defs>
<clipPath id="clip0_1_544">
<rect width="22.4255" height="23" fill="white" transform="translate(0.5)"/>
</clipPath>
</defs>
</svg>
